<?xml version="1.0" encoding="UTF-8"?>
<svg width="1259px" height="500px" viewBox="0 0 1259 500" version="1.1" xmlns="http://www.w3.org/2000/svg" xmlns:xlink="http://www.w3.org/1999/xlink">
    <!-- Generator: Sketch 55.1 (78136) - https://sketchapp.com -->
    <title>horizontal_logo_lightbackground</title>
    <desc>Created with Sketch.</desc>
    <defs>
        <filter x="-10.5%" y="-14.5%" width="121.0%" height="129.0%" filterUnits="objectBoundingBox" id="filter-1">
            <feOffset dx="0" dy="8" in="SourceAlpha" result="shadowOffsetOuter1"></feOffset>
            <feGaussianBlur stdDeviation="7.5" in="shadowOffsetOuter1" result="shadowBlurOuter1"></feGaussianBlur>
            <feColorMatrix values="0 0 0 0 0   0 0 0 0 0   0 0 0 0 0  0 0 0 0.3 0" type="matrix" in="shadowBlurOuter1" result="shadowMatrixOuter1"></feColorMatrix>
            <feMerge>
                <feMergeNode in="shadowMatrixOuter1"></feMergeNode>
                <feMergeNode in="SourceGraphic"></feMergeNode>
            </feMerge>
        </filter>
        <path d="M232.649386,29.5613903 L403.636005,277.608393 C409.513203,286.13433 407.365975,297.810377 398.840038,303.687574 C395.710574,305.844812 391.999381,307 388.198431,307 L36.3451447,307 C25.9898056,307 17.5951447,298.605339 17.5951447,288.25 C17.5951447,284.44905 18.7503322,280.737857 20.9075702,277.608393 L191.89419,29.5613903 C199.65209,18.3071535 215.064472,15.4728127 226.318709,23.2307129 C228.796233,24.9385483 230.941551,27.0838663 232.649386,29.5613903 Z" id="path-2"></path>
        <linearGradient x1="73.7685667%" y1="47.2893222%" x2="64.205414%" y2="55.5312652%" id="linearGradient-4">
            <stop stop-color="#92FCFF" offset="0%"></stop>
            <stop stop-color="#0181FD" offset="100%"></stop>
        </linearGradient>
        <linearGradient x1="73.7685667%" y1="47.7228073%" x2="64.205414%" y2="54.6467184%" id="linearGradient-5">
            <stop stop-color="#C9FEFF" offset="0%"></stop>
            <stop stop-color="#0181FD" offset="100%"></stop>
        </linearGradient>
    </defs>
    <g id="horizontal_logo_lightbackground" stroke="none" stroke-width="1" fill="none" fill-rule="evenodd">
        <g id="Group" transform="translate(33.000000, 97.000000)">
            <path d="M501.883937,191.108392 C511.396524,191.108392 518.224764,187.14538 522.368861,179.219237 L533.953439,179.219237 C531.504654,185.635638 527.619621,190.825297 522.298223,194.788369 C516.976825,198.75144 510.12504,200.732946 501.742661,200.732946 C491.099866,200.732946 482.435065,197.194543 475.747999,190.117629 C469.2493,183.229433 466,174.595729 466,164.216255 C466,153.742424 469.108026,145.108719 475.324172,138.314882 C481.917055,131.237968 490.487673,127.699565 501.036284,127.699565 C511.584896,127.699565 520.155514,131.237968 526.748396,138.314882 C532.964543,145.108719 536.072569,153.742424 536.072569,164.216255 L536.072569,168.462382 L476.878201,168.462382 C477.631673,174.973143 480.221695,180.351516 484.648345,184.597664 C489.169178,188.938171 494.914318,191.108392 501.883937,191.108392 Z M501.036284,136.582003 C494.493436,136.582003 488.993733,138.656744 484.53701,142.806289 C480.364759,146.762832 477.804552,151.925561 476.856313,158.29463 L525.216255,158.29463 C524.268017,151.925561 521.70781,146.762832 517.535559,142.806289 C513.078836,138.656744 507.579133,136.582003 501.036284,136.582003 Z M612.233335,162.601626 L639.701016,198.759071 L626.108762,198.759071 L606.145138,170.169463 L586.039928,198.759071 L572.58926,198.759071 L599.915355,162.601626 L574.288292,128.686502 L587.880546,128.686502 L606.145138,155.173933 L624.268144,128.686502 L637.860398,128.686502 L612.233335,162.601626 Z M713.088581,191.108392 C722.601168,191.108392 729.429408,187.14538 733.573505,179.219237 L745.158083,179.219237 C742.709298,185.635638 738.824265,190.825297 733.502868,194.788369 C728.18147,198.75144 721.329684,200.732946 712.947306,200.732946 C702.30451,200.732946 693.639709,197.194543 686.952643,190.117629 C680.453945,183.229433 677.204644,174.595729 677.204644,164.216255 C677.204644,153.742424 680.312671,145.108719 686.528817,138.314882 C693.121699,131.237968 701.692317,127.699565 712.240929,127.699565 C722.78954,127.699565 731.360159,131.237968 737.953041,138.314882 C744.169187,145.108719 747.277213,153.742424 747.277213,164.216255 L747.277213,168.462382 L688.082846,168.462382 C688.836318,174.973143 691.42634,180.351516 695.852989,184.597664 C700.373823,188.938171 706.118963,191.108392 713.088581,191.108392 Z M712.240929,136.582003 C705.69808,136.582003 700.198377,138.656744 695.741655,142.806289 C691.569403,146.762832 689.009197,151.925561 688.060958,158.29463 L736.4209,158.29463 C735.472661,151.925561 732.912454,146.762832 728.740203,142.806289 C724.28348,138.656744 718.783777,136.582003 712.240929,136.582003 Z M836.812598,105.986938 C842.33925,105.986938 847.678478,107.049152 852.830443,109.173613 C857.982407,111.298074 862.525434,114.390298 866.459661,118.450379 C875.171164,127.420325 879.526851,138.892242 879.526851,152.866473 C879.526851,166.840705 875.171164,178.312621 866.459661,187.282567 C862.525434,191.342648 857.982407,194.434872 852.830443,196.559333 C847.678478,198.683794 842.33925,199.746009 836.812598,199.746009 L797.61103,199.746009 L797.61103,105.986938 L836.812598,105.986938 Z M835.885063,188.889695 C845.68307,188.889695 853.643831,185.284878 859.767585,178.075137 C865.702916,171.146294 868.670537,162.579002 868.670537,152.373004 C868.670537,142.167006 865.702916,133.599715 859.767585,126.670872 C853.643831,119.46113 845.68307,115.856313 835.885063,115.856313 L807.480406,115.856313 L807.480406,188.889695 L835.885063,188.889695 Z M1010.78955,199.746009 L999.051612,199.746009 L987.596517,172.553045 L941.21045,172.553045 L929.755354,199.746009 L918.017417,199.746009 L957.756699,105.986938 L971.050267,105.986938 L1010.78955,199.746009 Z M984.142235,162.24238 L964.896952,115.856313 L945.651669,162.24238 L984.142235,162.24238 Z M1098.627,105 C1112.53819,105 1123.95835,109.659522 1132.88783,118.978705 C1141.62932,128.015488 1146,139.311298 1146,152.866473 C1146,166.421648 1141.62932,177.717458 1132.88783,186.754242 C1123.95835,196.073425 1112.53819,200.732946 1098.627,200.732946 C1084.71581,200.732946 1073.29564,196.073425 1064.36616,186.754242 C1055.62467,177.717458 1051.25399,166.421648 1051.25399,152.866473 C1051.25399,139.311298 1055.62467,128.015488 1064.36616,118.978705 C1073.29564,109.659522 1084.71581,105 1098.627,105 Z M1098.627,189.876633 C1109.63336,189.876633 1118.54092,186.257898 1125.34994,179.020319 C1131.87914,172.064724 1135.14369,163.182375 1135.14369,152.373004 C1135.14369,141.563634 1131.87914,132.681284 1125.34994,125.725689 C1118.54092,118.488111 1109.63336,114.869376 1098.627,114.869376 C1087.62063,114.869376 1078.71307,118.488111 1071.90405,125.725689 C1065.37485,132.681284 1062.1103,141.563634 1062.1103,152.373004 C1062.1103,163.182375 1065.37485,172.064724 1071.90405,179.020319 C1078.71307,186.257898 1087.62063,189.876633 1098.627,189.876633 Z" id="exeDAO" fill="#0248A8" fill-rule="nonzero"></path>
            <g id="Path-7" filter="url(#filter-1)">
                <mask id="mask-3" fill="white">
                    <use xlink:href="#path-2"></use>
                </mask>
                <use id="Mask" fill="#0248A8" xlink:href="#path-2"></use>
                <path d="M-289.757877,266.616306 C-53.9391081,271.536322 95.9242691,267.555101 159.832254,254.672641 C290.81074,228.270228 257.378148,72.8881418 229.437382,25.7916366 C216.871526,4.6108312 251.347061,5.65557904 262.742688,14.4174202 C281.422828,28.7801596 367.910109,138.317466 522.204531,343.02934 L-362.56715,325.519107 L-289.757877,266.616306 Z" fill="url(#linearGradient-4)" opacity="0.7" mask="url(#mask-3)"></path>
                <path d="M-260.148233,263.946118 C-15.9287957,269.03806 139.273226,264.917718 205.457832,251.585091 C341.102217,224.260068 321.929369,99.1331161 292.993258,50.3908636 C247.981447,-25.430556 343.896709,72.1156027 580.739044,343.02934 L-335.551221,324.907227 L-260.148233,263.946118 Z" fill="url(#linearGradient-5)" mask="url(#mask-3)"></path>
            </g>
        </g>
    </g>
</svg>